# xmcd CD database file generated by Grip 3.2.0
# 
# Track frame offsets:
#       150
#       17625
#       33150
#       52875
#       76950
#       95850
#       114675
#       135075
#       156525
#       183000
# 
# Disc length: 2481 seconds
# 
# Revision: 3
# Processed by: cddbd v1.5.2PL0 Copyright (c) Steve Scherf et al.
# Submitted via: Grip 3.2.0
# 
DISCID=7309af0a
DTITLE=Jeff Reynolds - Emotions
DYEAR=1982
DGENRE=Blues
TTITLE0=Stormforce
TTITLE1=Emotions
TTITLE2=Ollie
TTITLE3=Earthrise
TTITLE4=The Jam
TTITLE5=Mandy
TTITLE6=Sundragon
TTITLE7=On the Road
TTITLE8=Crocodile
TTITLE9=The End
EXTD=YEAR: 1982 ID3G: 0
EXTT0=
EXTT1=
EXTT2=
EXTT3=
EXTT4=
EXTT5=
EXTT6=
EXTT7=
EXTT8=
EXTT9=
PLAYORDER=
